<svg xmlns="http://www.w3.org/2000/svg" version="1.1" xmlns:xlink="http://www.w3.org/1999/xlink" xmlns:svgjs="http://svgjs.dev/svgjs" width="2000" height="1247" viewBox="0 0 2000 1247"><g transform="matrix(1,0,0,1,-1.2121212121212466,0.504858299595071)"><svg viewBox="0 0 396 247" data-background-color="#ffffff" preserveAspectRatio="xMidYMid meet" height="1247" width="2000" xmlns="http://www.w3.org/2000/svg" xmlns:xlink="http://www.w3.org/1999/xlink"><g id="tight-bounds" transform="matrix(1,0,0,1,0.2400000000000091,-0.09999999999999432)"><svg viewBox="0 0 395.52 247.2" height="247.2" width="395.52"><g><svg></svg></g><g><svg viewBox="0 0 395.52 247.2" height="247.2" width="395.52"><g transform="matrix(1,0,0,1,75.54432,93.14386250660331)"><svg viewBox="0 0 244.43135999999998 60.91227498679336" height="60.91227498679336" width="244.43135999999998"><g><svg viewBox="0 0 244.43135999999998 60.91227498679336" height="60.91227498679336" width="244.43135999999998"><g><svg viewBox="0 0 244.43135999999998 60.91227498679336" height="60.91227498679336" width="244.43135999999998"><g><svg viewBox="0 0 244.43135999999998 60.91227498679336" height="60.91227498679336" width="244.43135999999998"><g id="textblocktransform"><svg viewBox="0 0 244.43135999999998 60.91227498679336" height="60.91227498679336" width="244.43135999999998" id="textblock"><g><svg viewBox="0 0 244.43135999999998 36.22309114608734" height="36.22309114608734" width="244.43135999999998"><g transform="matrix(1,0,0,1,0,0)"><svg width="244.43135999999998" viewBox="0.05000000074505806 -31.959999084472656 220.25 32.63999938964844" height="36.22309114608734" data-palette-color="#ee3e38"><path d="M14.33 0.42L14.33 0.42Q11.96 0.42 10.38 0.05L10.38 0.05Q8.18-0.42 7.15-1.39L7.15-1.39Q4.86-6.25 3.22-12.04L3.22-12.04Q0.95-20.04 0.05-28.56L0.05-28.56Q1.15-30.18 3.05-31.07 4.96-31.96 7.3-31.96L7.3-31.96Q10.82-31.96 12.83-30.62 14.84-29.27 14.84-26.78L14.84-26.78Q14.67-24.93 14.54-21.34 14.4-17.75 14.4-14.84L14.4-14.84Q14.4-14.04 14.56-13.59 14.72-13.13 15.23-13.13L15.23-13.13Q15.43-13.13 15.72-13.21L15.72-13.21Q15.7-13.43 15.7-13.94L15.7-13.94 15.7-14.79Q15.7-18.33 15.94-22.96 16.19-27.59 16.53-29.86L16.53-29.86Q18.75-31.23 21.75-31.23 24.76-31.23 26.59-30.4L26.59-30.4Q28.78-29.37 28.91-27.39L28.91-27.39Q28.78-25 28.45-22.68 28.13-20.36 27.66-17.33 27.2-14.31 27.08-13.33L27.08-13.33Q27.27-13.23 27.59-13.23 27.91-13.23 28.17-13.48 28.44-13.72 28.61-14.65L28.61-14.65Q29.37-18.55 29.86-22.89 30.35-27.22 30.49-30.44L30.49-30.44Q32.74-31.96 36.69-31.96L36.69-31.96Q39.89-31.96 41.8-30.26 43.7-28.56 43.7-25.71L43.7-25.71Q43.7-23.8 41.89-15.72L41.89-15.72Q40.97-11.47 40.11-8.46 39.26-5.44 38.72-4.22L38.72-4.22Q37.6-1.76 35.36-0.67 33.13 0.42 29.66 0.42L29.66 0.42Q28.27 0.42 26.45 0 24.63-0.42 23.68-0.93L23.68-0.93Q23.19-1.68 22.58-3.22 21.97-4.76 21.83-5.54L21.83-5.54Q20.87-5.52 20.87-4.52L20.87-4.52Q20.87-3.74 21.63-1.64L21.63-1.64Q19.07 0.42 14.33 0.42ZM57.13-16.04Q57.32-15.84 57.74-15.84 58.15-15.84 58.44-16.02L58.44-16.02Q57.81-19.73 57.59-20.41L57.59-20.41Q57.32-21.12 56.78-21.12L56.78-21.12Q56.54-21.12 56.2-20.97L56.2-20.97 57.13-16.04ZM52.29-8.72L52.29-8.72Q52.05-8.37 52.05-8.08L52.05-8.08Q52.05-7.37 53.38-6.9 54.71-6.42 56.61-6.3L56.61-6.3Q56.93-2.78 57.3-2.29L57.3-2.29Q56.83-1.39 54.73-0.48 52.63 0.44 50 0.44L50 0.44Q46.51 0.44 44.02-1.06 41.53-2.56 41.53-4.93L41.53-4.93Q41.53-5.57 41.65-6.05L41.65-6.05 46.85-29.3Q48.8-30.54 51.51-31.25 54.22-31.96 57.15-31.96L57.15-31.96Q61.35-31.96 64.33-30.54L64.33-30.54Q67.72-28.93 68.45-25.88L68.45-25.88 74.02-2.86Q71.48 0.44 65.74 0.44L65.74 0.44Q62.96 0.44 61.03-0.56 59.1-1.56 58.79-3.42L58.79-3.42 58.25-6.4Q59.71-6.42 61.08-6.96 62.45-7.5 62.45-8.08L62.45-8.08Q62.45-8.47 62.13-8.72L62.13-8.72Q61.2-8.06 59.86-7.71 58.52-7.37 57.37-7.37L57.37-7.37Q54.07-7.37 52.29-8.72ZM97.75-27.44L97.75-11.16Q97.75-6.01 94.48-2.78L94.48-2.78Q91.01 0.68 84.91 0.68L84.91 0.68Q81.42 0.68 78.29-1.12L78.29-1.12Q75.9-2.49 74.65-4.27L74.65-4.27Q74.41-5.76 74.41-6.98L74.41-6.98Q74.41-10.96 76.83-13.09L76.83-13.09Q78.78-14.79 81.64-14.79L81.64-14.79Q83.81-14.79 85.59-13.65L85.59-13.65Q87.4-12.43 88.25-10.28L88.25-10.28Q89.03-10.28 89.03-11.08L89.03-11.08Q89.03-11.5 88.68-12.18 88.33-12.87 87.67-13.55L87.67-13.55Q85.93-15.33 83.49-15.75L83.49-15.75 83.49-29.81Q84.71-30.71 86.57-31.32 88.42-31.93 90.79-31.93 93.16-31.93 95.06-31.1L95.06-31.1Q97.75-29.88 97.75-27.44L97.75-27.44ZM113.74-16.04Q113.93-15.84 114.35-15.84 114.76-15.84 115.06-16.02L115.06-16.02Q114.42-19.73 114.2-20.41L114.2-20.41Q113.93-21.12 113.4-21.12L113.4-21.12Q113.15-21.12 112.81-20.97L112.81-20.97 113.74-16.04ZM108.9-8.72L108.9-8.72Q108.66-8.37 108.66-8.08L108.66-8.08Q108.66-7.37 109.99-6.9 111.32-6.42 113.22-6.3L113.22-6.3Q113.54-2.78 113.91-2.29L113.91-2.29Q113.44-1.39 111.35-0.48 109.25 0.44 106.61 0.44L106.61 0.44Q103.12 0.44 100.63-1.06 98.14-2.56 98.14-4.93L98.14-4.93Q98.14-5.57 98.26-6.05L98.26-6.05 103.46-29.3Q105.41-30.54 108.12-31.25 110.83-31.96 113.76-31.96L113.76-31.96Q117.96-31.96 120.94-30.54L120.94-30.54Q124.33-28.93 125.07-25.88L125.07-25.88 130.63-2.86Q128.09 0.44 122.36 0.44L122.36 0.44Q119.57 0.44 117.64-0.56 115.72-1.56 115.4-3.42L115.4-3.42 114.86-6.4Q116.33-6.42 117.69-6.96 119.06-7.5 119.06-8.08L119.06-8.08Q119.06-8.47 118.74-8.72L118.74-8.72Q117.81-8.06 116.47-7.71 115.13-7.37 113.98-7.37L113.98-7.37Q110.69-7.37 108.9-8.72ZM161.2-25.88L161.2-25.88 161.2-1.61Q158.46 0.44 154.19 0.44L154.19 0.44Q150.89 0.44 148.96-0.9L148.96-0.9Q146.94-2.27 146.94-4.86L146.94-4.86 146.94-9.69 148.67-9.69Q149.67-9.69 149.93-9.95 150.19-10.21 150.19-10.79L150.19-10.79 142.52-10.79Q142.52-10.21 142.74-9.95 142.96-9.69 143.79-9.69L143.79-9.69 145.64-9.69 145.64-1.61Q143.76-0.39 142.08 0.02 140.4 0.44 138.64 0.44L138.64 0.44Q135.34 0.44 133.41-0.9L133.41-0.9Q131.39-2.27 131.39-4.86L131.39-4.86 131.39-29.15Q132.66-30.49 134.52-31.21 136.39-31.93 138.42-31.93L138.42-31.93Q141.37-31.93 143.42-30.47L143.42-30.47Q145.64-28.81 145.64-25.88L145.64-25.88 145.64-21.53 148.74-21.53Q148.74-22.17 148.51-22.4 148.28-22.63 147.77-22.63L147.77-22.63 146.94-22.63 146.94-29.15Q148.21-30.49 150.08-31.21 151.94-31.93 153.97-31.93L153.97-31.93Q156.92-31.93 158.97-30.47L158.97-30.47Q161.2-28.81 161.2-25.88ZM177.92-16.04Q178.11-15.84 178.53-15.84 178.94-15.84 179.24-16.02L179.24-16.02Q178.6-19.73 178.38-20.41L178.38-20.41Q178.11-21.12 177.58-21.12L177.58-21.12Q177.33-21.12 176.99-20.97L176.99-20.97 177.92-16.04ZM173.08-8.72L173.08-8.72Q172.84-8.37 172.84-8.08L172.84-8.08Q172.84-7.37 174.17-6.9 175.5-6.42 177.4-6.3L177.4-6.3Q177.72-2.78 178.09-2.29L178.09-2.29Q177.62-1.39 175.52-0.48 173.43 0.44 170.79 0.44L170.79 0.44Q167.3 0.44 164.81-1.06 162.32-2.56 162.32-4.93L162.32-4.93Q162.32-5.57 162.44-6.05L162.44-6.05 167.64-29.3Q169.59-30.54 172.3-31.25 175.01-31.96 177.94-31.96L177.94-31.96Q182.14-31.96 185.12-30.54L185.12-30.54Q188.51-28.93 189.25-25.88L189.25-25.88 194.81-2.86Q192.27 0.44 186.54 0.44L186.54 0.44Q183.75 0.44 181.82-0.56 179.89-1.56 179.58-3.42L179.58-3.42 179.04-6.4Q180.51-6.42 181.87-6.96 183.24-7.5 183.24-8.08L183.24-8.08Q183.24-8.47 182.92-8.72L182.92-8.72Q181.99-8.06 180.65-7.71 179.31-7.37 178.16-7.37L178.16-7.37Q174.87-7.37 173.08-8.72ZM211.19-19.02L212.88-19.02 212.88-1.86Q211.75-0.88 209.87-0.22 207.99 0.44 205.31 0.44 202.62 0.44 200.74-0.76L200.74-0.76Q198.62-2.05 198.62-4.42L198.62-4.42 198.62-20.14 192.93-20.14Q191.17-22.66 191.17-25.63L191.17-25.63Q191.17-27.66 191.82-29.16 192.47-30.66 193.42-31.49L193.42-31.49 218.66-31.49Q219.37-30.4 219.83-28.83 220.3-27.27 220.3-25.73L220.3-25.73Q220.3-22.85 219.03-21.5 217.76-20.14 215.61-20.14L215.61-20.14 208.46-20.14Q208.38-19.97 208.38-19.78L208.38-19.78Q208.38-19.34 208.9-19.19L208.9-19.19Q209.43-19.02 211.19-19.02L211.19-19.02Z" opacity="1" transform="matrix(1,0,0,1,0,0)" fill="#ee3e38" class="wordmark-text-0" data-fill-palette-color="primary" id="text-0"></path></svg></g></svg></g><g transform="matrix(1,0,0,1,0,44.77449361149105)"><svg viewBox="0 0 244.43135999999998 16.13778137530231" height="16.13778137530231" width="244.43135999999998"><g transform="matrix(1,0,0,1,0,0)"><svg width="244.43135999999998" viewBox="0.5899999737739563 -38.0099983215332 676.3399658203125 44.64999771118164" height="16.13778137530231" data-palette-color="#ee3e38"><path d="M4.15-35.55L14.92-16.16 25.78-35.55 29.25-35.55 16.43-13.4 16.43 0 13.4 0 13.4-13.4 0.59-35.55 4.15-35.55ZM30.57-12.79L30.57-13.6Q30.57-17.46 32.03-20.46 33.5-23.46 36.13-25.18 38.77-26.9 42.33-26.9L42.33-26.9Q45.92-26.9 48.58-25.18 51.25-23.46 52.7-20.46 54.15-17.46 54.15-13.6L54.15-13.6 54.15-12.79Q54.15-8.96 52.7-5.96 51.25-2.95 48.6-1.23 45.95 0.49 42.38 0.49L42.38 0.49Q38.79 0.49 36.15-1.23 33.5-2.95 32.03-5.96 30.57-8.96 30.57-12.79L30.57-12.79ZM33.5-13.6L33.5-12.79Q33.5-9.91 34.52-7.45 35.55-4.98 37.52-3.48 39.5-1.98 42.38-1.98L42.38-1.98Q45.24-1.98 47.2-3.48 49.17-4.98 50.2-7.45 51.22-9.91 51.22-12.79L51.22-12.79 51.22-13.6Q51.22-16.46 50.2-18.92 49.17-21.39 47.19-22.91 45.21-24.44 42.33-24.44L42.33-24.44Q39.48-24.44 37.5-22.91 35.52-21.39 34.51-18.92 33.5-16.46 33.5-13.6L33.5-13.6ZM77.12-6.1L77.12-26.42 80.05-26.42 80.05 0 77.22 0 77.12-6.1ZM77.66-10.99L79.17-11.04Q79.17-7.71 78.13-5.11 77.08-2.51 74.78-1.01 72.49 0.49 68.77 0.49L68.77 0.49Q64.89 0.49 62.49-1.82 60.08-4.13 60.08-9.52L60.08-9.52 60.08-26.42 63.01-26.42 63.01-9.47Q63.01-6.64 63.84-5.03 64.67-3.42 66.05-2.73 67.43-2.05 69.12-2.05L69.12-2.05Q72.34-2.05 74.21-3.3 76.07-4.54 76.87-6.59 77.66-8.64 77.66-10.99L77.66-10.99ZM90.58-22.05L90.58 0 87.65 0 87.65-26.42 90.5-26.42 90.58-22.05ZM99.93-26.61L99.85-23.95Q99.37-24.02 98.9-24.07 98.44-24.12 97.9-24.12L97.9-24.12Q95.39-24.12 93.68-22.9 91.97-21.68 91.08-19.63 90.19-17.58 90.11-15.04L90.11-15.04 89.01-14.65Q89.01-18.09 89.98-20.86 90.94-23.63 92.93-25.27 94.92-26.9 98-26.9L98-26.9Q98.56-26.9 99.11-26.82 99.66-26.73 99.93-26.61L99.93-26.61ZM124-6.2L130.35-26.42 132.42-26.42 131.2-20.95 124.54 0 122.49 0 124-6.2ZM117.41-26.42L122.97-6.08 124.17 0 122.05 0 114.38-26.42 117.41-26.42ZM140.36-6.15L145.8-26.42 148.8-26.42 141.14 0 139.04 0 140.36-6.15ZM132.86-26.42L139.14-6.37 140.7 0 138.65 0 131.84-20.97 130.69-26.42 132.86-26.42ZM164.6 0.49L164.6 0.49Q161.16 0.49 158.48-1.18 155.81-2.86 154.28-5.77 152.76-8.69 152.76-12.48L152.76-12.48 152.76-13.53Q152.76-17.6 154.33-20.61 155.91-23.61 158.48-25.26 161.06-26.9 164.06-26.9L164.06-26.9Q167.43-26.9 169.78-25.35 172.12-23.8 173.33-21.07 174.54-18.33 174.54-14.82L174.54-14.82 174.54-13.04 154.54-13.04 154.54-15.5 171.61-15.5 171.61-15.84Q171.56-18.07 170.72-20.02 169.87-21.97 168.21-23.21 166.55-24.44 164.06-24.44L164.06-24.44Q161.6-24.44 159.69-23.05 157.79-21.66 156.74-19.2 155.69-16.75 155.69-13.53L155.69-13.53 155.69-12.48Q155.69-9.55 156.82-7.18 157.96-4.81 160.01-3.39 162.06-1.98 164.72-1.98L164.72-1.98Q167.07-1.98 168.87-2.84 170.68-3.71 172.12-5.59L172.12-5.59 173.97-4.2Q172.68-2.27 170.42-0.89 168.16 0.49 164.6 0.49ZM180.2-37.5L183.13-37.5 183.13-5.13 182.93 0 180.2 0 180.2-37.5ZM201.51-13.45L201.51-12.94Q201.51-8.98 200.33-5.96 199.15-2.93 196.89-1.22 194.63 0.49 191.43 0.49L191.43 0.49Q188.26 0.49 186.06-0.83 183.86-2.15 182.59-4.44 181.32-6.74 180.91-9.67L180.91-9.67 180.91-16.28Q181.4-19.48 182.68-21.86 183.96-24.24 186.11-25.57 188.26-26.9 191.38-26.9L191.38-26.9Q194.6-26.9 196.86-25.26 199.12-23.61 200.32-20.58 201.51-17.55 201.51-13.45L201.51-13.45ZM198.56-12.94L198.56-13.45Q198.56-16.53 197.77-19.01 196.97-21.48 195.26-22.92 193.55-24.37 190.82-24.37L190.82-24.37Q188.72-24.37 187.26-23.66 185.79-22.95 184.83-21.81 183.86-20.68 183.3-19.34 182.74-17.99 182.47-16.72L182.47-16.72 182.47-9.11Q182.89-7.25 183.9-5.64 184.91-4.03 186.65-3.04 188.38-2.05 190.87-2.05L190.87-2.05Q193.53-2.05 195.23-3.5 196.92-4.96 197.74-7.41 198.56-9.86 198.56-12.94L198.56-12.94ZM223.78-6.74L223.78-6.74Q223.78-7.81 223.23-8.86 222.68-9.91 221.17-10.79 219.65-11.67 216.7-12.3L216.7-12.3Q213.77-12.92 211.71-13.82 209.64-14.72 208.57-16.14 207.5-17.55 207.5-19.73L207.5-19.73Q207.5-21.7 208.62-23.33 209.74-24.95 211.84-25.93 213.94-26.9 216.8-26.9L216.8-26.9Q219.85-26.9 222.03-25.88 224.22-24.85 225.39-23.07 226.56-21.29 226.56-19.02L226.56-19.02 223.61-19.02Q223.61-21.07 221.85-22.75 220.09-24.44 216.8-24.44L216.8-24.44Q214.53-24.44 213.11-23.74 211.69-23.05 211.05-21.98 210.4-20.92 210.4-19.82L210.4-19.82Q210.4-18.65 210.94-17.74 211.47-16.82 212.99-16.09 214.5-15.36 217.46-14.67L217.46-14.67Q220.65-13.96 222.69-12.95 224.73-11.94 225.72-10.46 226.71-8.98 226.71-6.88L226.71-6.88Q226.71-4.71 225.5-3.04 224.29-1.37 222.11-0.44 219.92 0.49 216.94 0.49L216.94 0.49Q213.6 0.49 211.29-0.62 208.98-1.73 207.8-3.54 206.62-5.35 206.62-7.42L206.62-7.42 209.52-7.42Q209.67-5.35 210.83-4.16 211.99-2.98 213.65-2.48 215.31-1.98 216.94-1.98L216.94-1.98Q219.19-1.98 220.7-2.65 222.22-3.32 223-4.41 223.78-5.49 223.78-6.74ZM236.55-26.42L236.55 0 233.64 0 233.64-26.42 236.55-26.42ZM233.13-34.06L233.13-34.06Q233.13-34.89 233.65-35.46 234.18-36.04 235.11-36.04L235.11-36.04Q236.06-36.04 236.6-35.46 237.13-34.89 237.13-34.06L237.13-34.06Q237.13-33.25 236.6-32.69 236.06-32.13 235.11-32.13L235.11-32.13Q234.18-32.13 233.65-32.69 233.13-33.25 233.13-34.06ZM254.54-26.42L254.54-24.02 241.28-24.02 241.28-26.42 254.54-26.42ZM246.12-33.2L249.05-33.2 249.05-6.42Q249.05-4.59 249.54-3.65 250.02-2.71 250.82-2.39 251.61-2.08 252.51-2.08L252.51-2.08Q253.17-2.08 253.77-2.16 254.37-2.25 254.86-2.32L254.86-2.32 254.98 0.1Q254.44 0.27 253.59 0.38 252.73 0.49 251.88 0.49L251.88 0.49Q250.2 0.49 248.9-0.13 247.61-0.76 246.86-2.28 246.12-3.81 246.12-6.45L246.12-6.45 246.12-33.2ZM270.83 0.49L270.83 0.49Q267.38 0.49 264.71-1.18 262.04-2.86 260.51-5.77 258.98-8.69 258.98-12.48L258.98-12.48 258.98-13.53Q258.98-17.6 260.56-20.61 262.13-23.61 264.71-25.26 267.29-26.9 270.29-26.9L270.29-26.9Q273.66-26.9 276-25.35 278.34-23.8 279.55-21.07 280.76-18.33 280.76-14.82L280.76-14.82 280.76-13.04 260.77-13.04 260.77-15.5 277.83-15.5 277.83-15.84Q277.78-18.07 276.94-20.02 276.1-21.97 274.44-23.21 272.78-24.44 270.29-24.44L270.29-24.44Q267.82-24.44 265.92-23.05 264.01-21.66 262.96-19.2 261.91-16.75 261.91-13.53L261.91-13.53 261.91-12.48Q261.91-9.55 263.05-7.18 264.18-4.81 266.24-3.39 268.29-1.98 270.95-1.98L270.95-1.98Q273.29-1.98 275.1-2.84 276.9-3.71 278.34-5.59L278.34-5.59 280.2-4.2Q278.91-2.27 276.65-0.89 274.39 0.49 270.83 0.49ZM289.28-4.61L289.28-1.2Q289.28 1.05 288.37 3.13 287.45 5.2 285.84 6.64L285.84 6.64 284.11 5.4Q284.86 4.37 285.38 3.37 285.89 2.37 286.15 1.26 286.4 0.15 286.4-1.12L286.4-1.12 286.4-4.61 289.28-4.61ZM308.2-37.5L311.13-37.5 311.13-5.13 310.94 0 308.2 0 308.2-37.5ZM329.52-13.45L329.52-12.94Q329.52-8.98 328.33-5.96 327.15-2.93 324.89-1.22 322.63 0.49 319.43 0.49L319.43 0.49Q316.26 0.49 314.06-0.83 311.87-2.15 310.6-4.44 309.33-6.74 308.91-9.67L308.91-9.67 308.91-16.28Q309.4-19.48 310.68-21.86 311.96-24.24 314.11-25.57 316.26-26.9 319.38-26.9L319.38-26.9Q322.61-26.9 324.87-25.26 327.12-23.61 328.32-20.58 329.52-17.55 329.52-13.45L329.52-13.45ZM326.56-12.94L326.56-13.45Q326.56-16.53 325.77-19.01 324.98-21.48 323.27-22.92 321.56-24.37 318.82-24.37L318.82-24.37Q316.72-24.37 315.26-23.66 313.79-22.95 312.83-21.81 311.87-20.68 311.3-19.34 310.74-17.99 310.47-16.72L310.47-16.72 310.47-9.11Q310.89-7.25 311.9-5.64 312.92-4.03 314.65-3.04 316.38-2.05 318.87-2.05L318.87-2.05Q321.53-2.05 323.23-3.5 324.93-4.96 325.74-7.41 326.56-9.86 326.56-12.94L326.56-12.94ZM352.88-6.1L352.88-26.42 355.81-26.42 355.81 0 352.98 0 352.88-6.1ZM353.42-10.99L354.93-11.04Q354.93-7.71 353.88-5.11 352.83-2.51 350.54-1.01 348.24 0.49 344.53 0.49L344.53 0.49Q340.65 0.49 338.24-1.82 335.84-4.13 335.84-9.52L335.84-9.52 335.84-26.42 338.77-26.42 338.77-9.47Q338.77-6.64 339.6-5.03 340.43-3.42 341.81-2.73 343.19-2.05 344.87-2.05L344.87-2.05Q348.1-2.05 349.96-3.3 351.83-4.54 352.62-6.59 353.42-8.64 353.42-10.99L353.42-10.99ZM366.67-26.42L366.67 0 363.77 0 363.77-26.42 366.67-26.42ZM363.26-34.06L363.26-34.06Q363.26-34.89 363.78-35.46 364.31-36.04 365.23-36.04L365.23-36.04Q366.19-36.04 366.72-35.46 367.26-34.89 367.26-34.06L367.26-34.06Q367.26-33.25 366.72-32.69 366.19-32.13 365.23-32.13L365.23-32.13Q364.31-32.13 363.78-32.69 363.26-33.25 363.26-34.06ZM377.91-37.5L377.91 0 375 0 375-37.5 377.91-37.5ZM395.9-26.42L395.9-24.02 382.64-24.02 382.64-26.42 395.9-26.42ZM387.48-33.2L390.41-33.2 390.41-6.42Q390.41-4.59 390.89-3.65 391.38-2.71 392.18-2.39 392.97-2.08 393.87-2.08L393.87-2.08Q394.53-2.08 395.13-2.16 395.73-2.25 396.22-2.32L396.22-2.32 396.34 0.1Q395.8 0.27 394.95 0.38 394.09 0.49 393.24 0.49L393.24 0.49Q391.55 0.49 390.26-0.13 388.96-0.76 388.22-2.28 387.48-3.81 387.48-6.45L387.48-6.45 387.48-33.2ZM419.17 0L416.26 0 416.26-29.71Q416.26-33.72 418.33-35.86 420.41-38.01 424.05-38.01L424.05-38.01Q424.83-38.01 425.62-37.93 426.42-37.84 427.17-37.6L427.17-37.6 426.95-35.18Q426.34-35.33 425.72-35.39 425.1-35.45 424.27-35.45L424.27-35.45Q421.9-35.45 420.53-33.95 419.17-32.45 419.17-29.71L419.17-29.71 419.17 0ZM425.49-26.42L425.49-24.02 411.89-24.02 411.89-26.42 425.49-26.42ZM429.1-12.79L429.1-13.6Q429.1-17.46 430.57-20.46 432.03-23.46 434.67-25.18 437.3-26.9 440.87-26.9L440.87-26.9Q444.46-26.9 447.12-25.18 449.78-23.46 451.23-20.46 452.69-17.46 452.69-13.6L452.69-13.6 452.69-12.79Q452.69-8.96 451.23-5.96 449.78-2.95 447.13-1.23 444.48 0.49 440.92 0.49L440.92 0.49Q437.33 0.49 434.68-1.23 432.03-2.95 430.57-5.96 429.1-8.96 429.1-12.79L429.1-12.79ZM432.03-13.6L432.03-12.79Q432.03-9.91 433.06-7.45 434.08-4.98 436.06-3.48 438.04-1.98 440.92-1.98L440.92-1.98Q443.77-1.98 445.74-3.48 447.71-4.98 448.73-7.45 449.76-9.91 449.76-12.79L449.76-12.79 449.76-13.6Q449.76-16.46 448.73-18.92 447.71-21.39 445.73-22.91 443.75-24.44 440.87-24.44L440.87-24.44Q438.01-24.44 436.04-22.91 434.06-21.39 433.04-18.92 432.03-16.46 432.03-13.6L432.03-13.6ZM461.65-22.05L461.65 0 458.72 0 458.72-26.42 461.57-26.42 461.65-22.05ZM471-26.61L470.92-23.95Q470.43-24.02 469.97-24.07 469.51-24.12 468.97-24.12L468.97-24.12Q466.46-24.12 464.75-22.9 463.04-21.68 462.15-19.63 461.25-17.58 461.18-15.04L461.18-15.04 460.08-14.65Q460.08-18.09 461.05-20.86 462.01-23.63 464-25.27 465.99-26.9 469.07-26.9L469.07-26.9Q469.63-26.9 470.18-26.82 470.73-26.73 471-26.61L471-26.61ZM487.7-37.5L490.63-37.5 490.63-5.13 490.43 0 487.7 0 487.7-37.5ZM509.01-13.45L509.01-12.94Q509.01-8.98 507.82-5.96 506.64-2.93 504.38-1.22 502.12 0.49 498.93 0.49L498.93 0.49Q495.75 0.49 493.55-0.83 491.36-2.15 490.09-4.44 488.82-6.74 488.4-9.67L488.4-9.67 488.4-16.28Q488.89-19.48 490.17-21.86 491.46-24.24 493.6-25.57 495.75-26.9 498.88-26.9L498.88-26.9Q502.1-26.9 504.36-25.26 506.62-23.61 507.81-20.58 509.01-17.55 509.01-13.45L509.01-13.45ZM506.05-12.94L506.05-13.45Q506.05-16.53 505.26-19.01 504.47-21.48 502.76-22.92 501.05-24.37 498.32-24.37L498.32-24.37Q496.22-24.37 494.75-23.66 493.29-22.95 492.32-21.81 491.36-20.68 490.8-19.34 490.23-17.99 489.97-16.72L489.97-16.72 489.97-9.11Q490.38-7.25 491.39-5.64 492.41-4.03 494.14-3.04 495.87-2.05 498.36-2.05L498.36-2.05Q501.03-2.05 502.72-3.5 504.42-4.96 505.24-7.41 506.05-9.86 506.05-12.94L506.05-12.94ZM532.37-6.1L532.37-26.42 535.3-26.42 535.3 0 532.47 0 532.37-6.1ZM532.91-10.99L534.42-11.04Q534.42-7.71 533.37-5.11 532.32-2.51 530.03-1.01 527.73 0.49 524.02 0.49L524.02 0.49Q520.14 0.49 517.74-1.82 515.33-4.13 515.33-9.52L515.33-9.52 515.33-26.42 518.26-26.42 518.26-9.47Q518.26-6.64 519.09-5.03 519.92-3.42 521.3-2.73 522.68-2.05 524.37-2.05L524.37-2.05Q527.59-2.05 529.46-3.3 531.32-4.54 532.12-6.59 532.91-8.64 532.91-10.99L532.91-10.99ZM558.74-6.74L558.74-6.74Q558.74-7.81 558.19-8.86 557.64-9.91 556.13-10.79 554.61-11.67 551.66-12.3L551.66-12.3Q548.73-12.92 546.67-13.82 544.6-14.72 543.53-16.14 542.46-17.55 542.46-19.73L542.46-19.73Q542.46-21.7 543.58-23.33 544.7-24.95 546.8-25.93 548.9-26.9 551.76-26.9L551.76-26.9Q554.81-26.9 556.99-25.88 559.18-24.85 560.35-23.07 561.52-21.29 561.52-19.02L561.52-19.02 558.57-19.02Q558.57-21.07 556.81-22.75 555.05-24.44 551.76-24.44L551.76-24.44Q549.49-24.44 548.07-23.74 546.66-23.05 546.01-21.98 545.36-20.92 545.36-19.82L545.36-19.82Q545.36-18.65 545.9-17.74 546.44-16.82 547.95-16.09 549.46-15.36 552.42-14.67L552.42-14.67Q555.62-13.96 557.65-12.95 559.69-11.94 560.68-10.46 561.67-8.98 561.67-6.88L561.67-6.88Q561.67-4.71 560.46-3.04 559.25-1.37 557.07-0.44 554.88 0.49 551.9 0.49L551.9 0.49Q548.56 0.49 546.25-0.62 543.95-1.73 542.76-3.54 541.58-5.35 541.58-7.42L541.58-7.42 544.48-7.42Q544.63-5.35 545.79-4.16 546.95-2.98 548.61-2.48 550.27-1.98 551.9-1.98L551.9-1.98Q554.15-1.98 555.66-2.65 557.18-3.32 557.96-4.41 558.74-5.49 558.74-6.74ZM571.51-26.42L571.51 0 568.6 0 568.6-26.42 571.51-26.42ZM568.09-34.06L568.09-34.06Q568.09-34.89 568.62-35.46 569.14-36.04 570.07-36.04L570.07-36.04Q571.02-36.04 571.56-35.46 572.09-34.89 572.09-34.06L572.09-34.06Q572.09-33.25 571.56-32.69 571.02-32.13 570.07-32.13L570.07-32.13Q569.14-32.13 568.62-32.69 568.09-33.25 568.09-34.06ZM582.4-20.78L582.4 0 579.47 0 579.47-26.42 582.28-26.42 582.4-20.78ZM581.76-14.87L580.44-15.6Q580.64-18.7 581.98-21.26 583.33-23.83 585.63-25.37 587.94-26.9 590.97-26.9L590.97-26.9Q593.63-26.9 595.51-25.93 597.39-24.95 598.4-22.81 599.41-20.68 599.41-17.19L599.41-17.19 599.41 0 596.48 0 596.48-17.21Q596.48-19.95 595.73-21.51 594.97-23.07 593.58-23.73 592.19-24.39 590.28-24.39L590.28-24.39Q588.18-24.39 586.61-23.47 585.03-22.56 583.97-21.11 582.91-19.65 582.35-17.99 581.79-16.33 581.76-14.87L581.76-14.87ZM617.19 0.49L617.19 0.49Q613.75 0.49 611.07-1.18 608.4-2.86 606.87-5.77 605.35-8.69 605.35-12.48L605.35-12.48 605.35-13.53Q605.35-17.6 606.92-20.61 608.5-23.61 611.07-25.26 613.65-26.9 616.65-26.9L616.65-26.9Q620.02-26.9 622.36-25.35 624.71-23.8 625.92-21.07 627.12-18.33 627.12-14.82L627.12-14.82 627.12-13.04 607.13-13.04 607.13-15.5 624.19-15.5 624.19-15.84Q624.15-18.07 623.3-20.02 622.46-21.97 620.8-23.21 619.14-24.44 616.65-24.44L616.65-24.44Q614.18-24.44 612.28-23.05 610.38-21.66 609.33-19.2 608.28-16.75 608.28-13.53L608.28-13.53 608.28-12.48Q608.28-9.55 609.41-7.18 610.55-4.81 612.6-3.39 614.65-1.98 617.31-1.98L617.31-1.98Q619.65-1.98 621.46-2.84 623.27-3.71 624.71-5.59L624.71-5.59 626.56-4.2Q625.27-2.27 623.01-0.89 620.75 0.49 617.19 0.49ZM648.66-6.74L648.66-6.74Q648.66-7.81 648.11-8.86 647.56-9.91 646.04-10.79 644.53-11.67 641.58-12.3L641.58-12.3Q638.65-12.92 636.58-13.82 634.52-14.72 633.45-16.14 632.37-17.55 632.37-19.73L632.37-19.73Q632.37-21.7 633.5-23.33 634.62-24.95 636.72-25.93 638.82-26.9 641.67-26.9L641.67-26.9Q644.73-26.9 646.91-25.88 649.1-24.85 650.27-23.07 651.44-21.29 651.44-19.02L651.44-19.02 648.49-19.02Q648.49-21.07 646.73-22.75 644.97-24.44 641.67-24.44L641.67-24.44Q639.4-24.44 637.99-23.74 636.57-23.05 635.93-21.98 635.28-20.92 635.28-19.82L635.28-19.82Q635.28-18.65 635.82-17.74 636.35-16.82 637.87-16.09 639.38-15.36 642.33-14.67L642.33-14.67Q645.53-13.96 647.57-12.95 649.61-11.94 650.6-10.46 651.59-8.98 651.59-6.88L651.59-6.88Q651.59-4.71 650.38-3.04 649.17-1.37 646.98-0.44 644.8 0.49 641.82 0.49L641.82 0.49Q638.48 0.49 636.17-0.62 633.86-1.73 632.68-3.54 631.49-5.35 631.49-7.42L631.49-7.42 634.4-7.42Q634.55-5.35 635.71-4.16 636.87-2.98 638.53-2.48 640.19-1.98 641.82-1.98L641.82-1.98Q644.07-1.98 645.58-2.65 647.09-3.32 647.88-4.41 648.66-5.49 648.66-6.74ZM674-6.74L674-6.74Q674-7.81 673.45-8.86 672.9-9.91 671.39-10.79 669.87-11.67 666.92-12.3L666.92-12.3Q663.99-12.92 661.93-13.82 659.86-14.72 658.79-16.14 657.71-17.55 657.71-19.73L657.71-19.73Q657.71-21.7 658.84-23.33 659.96-24.95 662.06-25.93 664.16-26.9 667.02-26.9L667.02-26.9Q670.07-26.9 672.25-25.88 674.44-24.85 675.61-23.07 676.78-21.29 676.78-19.02L676.78-19.02 673.83-19.02Q673.83-21.07 672.07-22.75 670.31-24.44 667.02-24.44L667.02-24.44Q664.75-24.44 663.33-23.74 661.91-23.05 661.27-21.98 660.62-20.92 660.62-19.82L660.62-19.82Q660.62-18.65 661.16-17.74 661.69-16.82 663.21-16.09 664.72-15.36 667.68-14.67L667.68-14.67Q670.87-13.96 672.91-12.95 674.95-11.94 675.94-10.46 676.93-8.98 676.93-6.88L676.93-6.88Q676.93-4.71 675.72-3.04 674.51-1.37 672.33-0.44 670.14 0.49 667.16 0.49L667.16 0.49Q663.82 0.49 661.51-0.62 659.2-1.73 658.02-3.54 656.84-5.35 656.84-7.42L656.84-7.42 659.74-7.42Q659.89-5.35 661.05-4.16 662.21-2.98 663.87-2.48 665.53-1.98 667.16-1.98L667.16-1.98Q669.41-1.98 670.92-2.65 672.44-3.32 673.22-4.41 674-5.49 674-6.74Z" opacity="1" transform="matrix(1,0,0,1,0,0)" fill="#ee3e38" class="slogan-text-1" data-fill-palette-color="secondary" id="text-1"></path></svg></g></svg></g></svg></g></svg></g></svg></g></svg></g></svg></g><g><path d="M245.816 0c68.262 0 123.6 55.338 123.6 123.6 0 68.262-55.338 123.6-123.6 123.6-56.204 0-103.646-37.514-118.654-88.868h1.703c14.957 50.44 61.657 87.235 116.951 87.235 67.36 0 121.967-54.606 121.966-121.967 0-67.36-54.606-121.967-121.966-121.967-55.294 0-101.993 36.795-116.951 87.235l-1.703 0c15.007-51.354 62.449-88.868 118.654-88.868z" fill="#ee3e38" stroke="transparent" data-fill-palette-color="tertiary"></path></g></svg></g><defs></defs></svg><rect width="395.52" height="247.2" fill="none" stroke="none" visibility="hidden"></rect></g></svg></g></svg>